# xmcd CD database file
#
# Track frame offsets:
#	150
#	16154
#	33709
#	49068
#	63794
#	77522
#	93628
#	109271
#	125609
#	141063
#	160183
#	177089
#	193880
#
# Disc length: 2749 seconds
#
# Revision: 0
# Processed by: cddbd v1.5.2PL0 Copyright (c) Steve Scherf et al.
# Submitted via: CDex 1.51
#
DISCID=ab0abb0d
DTITLE=Fred Blondin - Pas De Vie Sans Blues
DYEAR=2018
DGENRE=Blues
TTITLE0=Pas De Vie Sans Blues
TTITLE1=Je Partirais Demain
TTITLE2=Notre Amour Foutu
TTITLE3=La Route Est Longue
TTITLE4=Comme Un Frère
TTITLE5=Tu N'me Haïras Jamais Autant Que Je t'Aime
TTITLE6=Les Fleurs Du Mal
TTITLE7=J'ai Vu Le Blues
TTITLE8=L'Ombre De Ma Peine
TTITLE9=Les Mots De Mandela
TTITLE10=Moins Peur La Nuit
TTITLE11=Jusqu'au Dernier Jour De Ma Vie
TTITLE12=On Rentre A La Maison
EXTD=YEAR: 2018
EXTT0=
EXTT1=
EXTT2=
EXTT3=
EXTT4=
EXTT5=
EXTT6=
EXTT7=
EXTT8=
EXTT9=
EXTT10=
EXTT11=
EXTT12=
PLAYORDER=
